<svg xmlns="http://www.w3.org/2000/svg" width="15.147" height="18.045" viewBox="0 0 15.147 18.045">
    <defs>
        <style>
            .cls-1{fill:none}.cls-2{clip-path:url(#clip-path)}.cls-3{fill:#888}
        </style>
        <clipPath id="clip-path">
            <path d="M0 0h15.147v18.046H0z" class="cls-1"/>
        </clipPath>
    </defs>
    <g id="Component_1" class="cls-2" data-name="Component 1">
        <path id="Path_114" d="M21.165 6.641s-4.019 2.009-6.8.618a7.809 7.809 0 0 0-6.646 0 .332.332 0 0 0-.309.309c-.155.155-.309.309-.309.464V23.8a.73.73 0 0 0 .773.773.73.73 0 0 0 .773-.773v-6.185a6.428 6.428 0 0 1 5.1.155 6.1 6.1 0 0 0 3.091.773 12.832 12.832 0 0 0 5.1-1.391.8.8 0 0 0 .309-.618V7.259a.8.8 0 0 0-.309-.618.69.69 0 0 0-.773 0zm-.465 9.428c-1.082.464-4.019 1.7-6.492.464a7.651 7.651 0 0 0-5.719-.464V8.5a6.428 6.428 0 0 1 5.1.155c2.473 1.237 5.564.464 7.11-.155z" class="cls-3" data-name="Path 114" transform="translate(-7.1 -6.525)"/>
    </g>
</svg>
